<svg width="35" height="35" viewBox="0 0 35 35" fill="none" xmlns="http://www.w3.org/2000/svg">
<path d="M17.5 3.28125C14.6878 3.28125 11.9388 4.11517 9.60049 5.67754C7.26223 7.23992 5.43978 9.46058 4.36359 12.0587C3.28741 14.6569 3.00583 17.5158 3.55447 20.2739C4.1031 23.0321 5.4573 25.5656 7.44583 27.5542C9.43436 29.5427 11.9679 30.8969 14.7261 31.4455C17.4842 31.9942 20.3431 31.7126 22.9413 30.6364C25.5394 29.5602 27.7601 27.7378 29.3225 25.3995C30.8848 23.0612 31.7188 20.3122 31.7188 17.5C31.7148 13.7302 30.2155 10.1159 27.5498 7.45022C24.8841 4.78455 21.2698 3.28523 17.5 3.28125ZM17.5 24.0625C16.2021 24.0625 14.9333 23.6776 13.8541 22.9565C12.7749 22.2354 11.9337 21.2105 11.437 20.0114C10.9403 18.8122 10.8104 17.4927 11.0636 16.2197C11.3168 14.9467 11.9418 13.7774 12.8596 12.8596C13.7774 11.9418 14.9467 11.3168 16.2197 11.0636C17.4927 10.8104 18.8122 10.9403 20.0114 11.437C21.2105 11.9337 22.2354 12.7749 22.9565 13.8541C23.6776 14.9333 24.0625 16.2021 24.0625 17.5C24.0607 19.2399 23.3687 20.9081 22.1384 22.1384C20.9081 23.3687 19.2399 24.0607 17.5 24.0625ZM22.8607 10.5916C21.6246 9.62539 20.1503 9.01128 18.5938 8.81426V5.51934C21.021 5.73799 23.3237 6.6919 25.1945 8.25371L22.8607 10.5916ZM16.4063 8.82109C14.8497 9.01811 13.3754 9.63222 12.1393 10.5984L9.80547 8.25781C11.6763 6.696 13.979 5.74209 16.4063 5.52344V8.82109ZM10.5916 12.1393C9.62539 13.3754 9.01129 14.8497 8.81426 16.4062H5.51934C5.73799 13.979 6.69191 11.6763 8.25372 9.80547L10.5916 12.1393ZM8.8211 18.5937C9.01812 20.1503 9.63223 21.6246 10.5984 22.8607L8.25782 25.1945C6.69601 23.3237 5.7421 21.021 5.52344 18.5937H8.8211ZM12.1393 24.4084C13.3761 25.3722 14.8504 25.9839 16.4063 26.1789V29.4807C13.979 29.262 11.6763 28.3081 9.80547 26.7463L12.1393 24.4084ZM18.5938 26.1789C20.1496 25.9839 21.6239 25.3722 22.8607 24.4084L25.1945 26.7422C23.3237 28.304 21.021 29.2579 18.5938 29.4766V26.1789ZM24.4084 22.8607C25.3722 21.6239 25.9839 20.1496 26.1789 18.5937H29.4807C29.262 21.021 28.3081 23.3237 26.7463 25.1945L24.4084 22.8607ZM26.1789 16.4062C25.9839 14.8504 25.3722 13.3761 24.4084 12.1393L26.7422 9.80547C28.304 11.6763 29.2579 13.979 29.4766 16.4062H26.1789Z" fill="white"/>
</svg>
